<?xml version="1.0" encoding="utf-8"?>
<svg height="64px" width="64px" version="1.1" id="Layer_1" xmlns="http://www.w3.org/2000/svg" xmlns:xlink="http://www.w3.org/1999/xlink" x="0px" y="0px"
	 viewBox="0 0 1000 1000" style="enable-background:new 0 0 1000 1000;" xml:space="preserve">
<style type="text/css">
	.st0{stroke:#FFFFFF;stroke-width:4;stroke-miterlimit:10;}
	.st1{stroke:#FFFFFF;stroke-width:0.5;stroke-miterlimit:10;}
</style>
<g>
	<path d="M797.6,894.5H202.4v-789h595.1V894.5z M219.3,877.6h561.4V122.4H219.3V877.6z"/>
	<g>
		<path d="M277,781.2l4-4.7c3-3,4.5-1.6,6.4,0.6c3.2,3.7,10,10.4,18.3,10.4c11.3,0,23-8.7,23-29.5v-93.2c0-2,1.5-3.7,3.6-3.7h7.4
			c2.1,0,3.6,1.8,3.6,3.7v92.8c0,27.3-15.9,43.1-37.9,43.1c-16.4,0-25.5-10.4-28.7-14.6C275.7,784.6,275.9,782.6,277,781.2z"/>
		<path d="M381.1,777.4c6,0,10.8,4.7,10.8,10.7c0,5.8-4.7,10.7-10.8,10.7c-5.8,0-10.8-4.9-10.8-10.7
			C370.4,782.1,375.3,777.4,381.1,777.4z"/>
		<path d="M454.7,732.5l-45.5-65.7c-1.5-2.6,0-5.7,3-5.7h8.9c1.3,0,2.5,1,3,1.8l38.1,54.9l38.1-54.9c0.6-0.8,1.7-1.8,3-1.8h8.9
			c3,0,4.5,3.1,3,5.7l-46,65.5V795c0,2-1.7,3.7-3.6,3.7h-7.4c-2.1,0-3.6-1.8-3.6-3.7V732.5z"/>
		<path d="M542.9,777.4c6,0,10.8,4.7,10.8,10.7c0,5.8-4.7,10.7-10.8,10.7c-5.8,0-10.8-4.9-10.8-10.7
			C532.1,782.1,537,777.4,542.9,777.4z"/>
		<path d="M713.2,777.4c6,0,10.8,4.7,10.8,10.7c0,5.8-4.7,10.7-10.8,10.7c-5.8,0-10.8-4.9-10.8-10.7
			C702.5,782.1,707.4,777.4,713.2,777.4z"/>
		<path d="M574.9,662.6c0-2,1.6-3.5,3.5-3.5h4.6l82.4,110.5c0.2,0,0.2,0,0.4,0V664.8c0-2,1.5-3.7,3.5-3.7h6.4c1.8,0,3.5,1.8,3.5,3.7
			v132.4c0,2-1.6,3.5-3.5,3.5h-6.1l-81.2-108.5V795c0,2-1.5,3.7-3.5,3.7h-6.4c-1.8,0-3.5-1.8-3.5-3.7V662.6z"/>
	</g>
	<g>
		<rect x="414.2" y="174.4" width="175.5" height="25.5"/>
		<rect x="414.2" y="224.3" width="175.5" height="25.5"/>
		<path class="st0" d="M499,574.1"/>
		<path class="st1" d="M421.4,513.2"/>
		<path d="M414.2,274.2v25.5h147.9c0,0-0.1,185.9,0,192.7c0,2.1-0.5,7.5-0.7,8.9c-3.8,30.4-22.1,51.4-49,56.1c-3.9,0.7-8,1-12.5,0.7
			c-4.4,0.2-8.5,0-12.4-0.7c-26.9-4.7-45.2-25.7-49-56.1c-0.2-1.3-0.7-61.8-0.7-61.8h-26.6c-0.9,0-0.9,0-0.9,8.3V490
			c0,5.6,0.3,11,1,16c2.8,22,11.3,40,26.2,55c16.7,16.9,38.9,26.6,62.5,27.3c23.6-0.7,45.7-10.4,62.4-27.3
			c14.9-15.1,23.4-33.1,26.2-55c0.6-5,1-10.4,1-16l0-215.8H414.2z"/>
	</g>
</g>
</svg>
